<svg xmlns="http://www.w3.org/2000/svg" width="288" height="288" viewBox="0 0 288 288">
<rect width="288" height="288" fill="#003087"/>
<g fill="#ffffff">
<g transform="translate(77.5,60.0) scale(0.2806) translate(0,506) scale(0.1,-0.1)"><path d="M2275 5043 c-4 -10 -9 -59 -12 -110 l-6 -91 -61 -7 c-148 -14 -155 -16 -161 -37 -9 -27 -9 -170 0 -197 10 -33 43 -41 124 -31 39 5 77 7 85 4 19 -7 26 -37 26 -110 0 -86 -9 -122 -32 -130 -11 -3 -45 -31 -76 -62 -92 -91 -127 -181 -120 -308 4 -94 33 -164 98 -237 47 -53 48 -48 -24 -124 -42 -45 -65 -51 -122 -34 -16 5 -54 14 -84 20 -30 7 -66 16 -80 21 -14 4 -45 13 -70 20 -25 7 -124 39 -220 70 -184 61 -288 93 -355 111 -22 6 -53 14 -70 19 -16 4 -59 13 -95 20 -36 6 -87 16 -113 21 -65 12 -332 11 -382 -1 -124 -32 -193 -63 -275 -126 -76 -58 -172 -189 -194 -264 -4 -14 -14 -50 -23 -80 -22 -77 -21 -321 1 -414 40 -165 144 -402 275 -630 102 -175 203 -395 232 -503 5 -18 14 -50 19 -70 13 -46 41 -247 38 -265 -3 -11 336 -13 1768 -16 l1770 -2 13 107 c8 60 20 133 28 163 8 30 18 69 23 85 28 105 123 312 240 520 145 257 228 453 270 635 18 77 16 320 -3 390 -60 221 -198 373 -402 445 -78 27 -138 35 -274 35 -176 0 -266 -13 -483 -71 -75 -20 -99 -28 -283 -88 -99 -32 -214 -69 -255 -81 -41 -12 -86 -26 -100 -30 -14 -5 -50 -14 -80 -21 -30 -6 -68 -15 -84 -20 -60 -18 -80 -12 -134 45 -29 30 -52 59 -52 64 0 5 10 17 21 28 12 10 35 39 51 63 121 175 75 423 -100 541 -60 41 -66 60 -60 175 4 87 13 98 73 89 76 -11 134 -9 147 4 15 15 24 153 14 206 -7 37 -6 37 -157 52 l-66 6 -6 92 c-9 132 -4 126 -107 126 -74 0 -89 -3 -95 -17z m-1307 -1414 c101 -24 118 -28 162 -40 127 -34 448 -140 545 -179 119 -48 237 -107 253 -128 6 -9 12 -39 12 -66 0 -64 24 -141 87 -286 29 -67 32 -75 52 -140 35 -114 50 -182 71 -311 13 -84 13 -252 0 -304 -47 -182 -113 -295 -216 -366 -53 -36 -128 -40 -199 -9 -59 25 -164 130 -193 192 -24 53 -29 103 -10 115 7 4 62 7 123 8 l110 0 -2 54 c-1 61 -19 127 -41 154 -13 14 -33 17 -127 17 -79 0 -115 4 -122 13 -12 16 -28 69 -44 143 -20 95 -22 97 -144 102 -127 6 -128 4 -92 -106 14 -42 26 -86 27 -97 5 -48 8 -47 -140 -39 l-140 7 0 -56 c0 -80 20 -146 49 -166 17 -11 59 -17 145 -21 67 -3 127 -9 134 -14 47 -30 71 -217 36 -271 -41 -62 -131 -72 -233 -24 -135 64 -335 304 -499 599 -13 25 -40 72 -60 105 -19 33 -65 123 -102 200 -108 222 -135 322 -135 495 0 112 5 133 42 219 19 43 76 105 127 140 42 28 153 66 216 75 54 7 255 -3 308 -15z m3212 -10 c36 -11 83 -31 106 -44 49 -29 116 -100 137 -146 38 -88 42 -106 41 -229 -2 -187 -32 -286 -164 -545 -85 -165 -89 -173 -179 -325 -149 -250 -330 -460 -444 -515 -104 -50 -200 -43 -241 20 -35 54 -12 233 35 272 8 6 65 12 134 14 90 3 127 8 146 20 29 20 49 86 49 165 l0 56 -142 -3 -143 -4 3 30 c2 17 12 55 22 85 11 30 21 71 22 90 l3 35 -107 0 c-64 -1 -112 -5 -119 -12 -10 -10 -24 -56 -35 -113 -9 -46 -27 -105 -37 -117 -7 -9 -44 -13 -122 -13 -140 0 -138 2 -174 -160 -15 -68 -6 -73 109 -68 53 3 106 1 118 -3 76 -28 -54 -242 -183 -304 -63 -29 -145 -34 -193 -10 -74 37 -162 160 -207 290 -35 99 -46 278 -24 399 27 158 43 224 76 326 24 74 30 88 72 182 11 26 21 52 21 58 0 6 4 18 9 28 19 38 31 91 31 138 0 28 6 57 13 66 15 21 150 89 252 128 11 4 31 12 45 18 52 23 394 132 525 168 212 58 413 66 545 23z"/><path d="M554 1247 c-2 -7 -3 -76 -2 -152 l3 -140 1813 -3 1812 -2 0 155 0 155 -1810 0 c-1475 0 -1812 -2 -1816 -13z"/></g>
<path transform="translate(73.855,226.000) scale(0.04468,-0.04468)" d="M855 740 922 125Q923 111 926.0 95.0Q929 79 934.5 64.0Q940 49 950.0 36.5Q960 24 976 19Q998 12 1015.5 11.0Q1033 10 1041 10Q1049 10 1049 5Q1049 0 1043.0 -2.0Q1037 -4 1028 -4Q1020 -4 998.0 -4.0Q976 -4 950.0 -3.5Q924 -3 899.5 -2.0Q875 -1 861 0Q844 2 838.5 4.0Q833 6 833 10Q833 16 840 17Q844 18 845.0 28.5Q846 39 844 53L796 572H793L548 52Q532 19 527.0 9.0Q522 -1 515 -1Q510 -1 504.0 8.5Q498 18 484 45Q474 63 455.5 100.5Q437 138 418.0 176.0Q399 214 384.0 243.5Q369 273 367 277Q365 281 355.0 302.0Q345 323 331.0 352.5Q317 382 301.5 416.0Q286 450 272.0 480.0Q258 510 248.0 532.5Q238 555 235 562H231L191 98Q190 86 190.0 73.0Q190 60 190 47Q190 36 197.5 27.0Q205 18 216 16Q229 13 239.0 12.0Q249 11 254 11Q262 11 262 6Q262 -3 244 -3Q230 -3 215.0 -2.5Q200 -2 186.5 -1.5Q173 -1 163.5 -0.5Q154 0 151 0Q148 0 138.0 -0.5Q128 -1 115.5 -1.5Q103 -2 90.0 -2.5Q77 -3 67 -3Q50 -3 50 6Q50 11 60 11Q66 11 72.5 11.5Q79 12 90 14Q115 19 121.0 43.5Q127 68 130 97L202 749Q204 767 213 767Q221 767 228 752L534 123L828 751Q835 767 843 767Q852 767 855 740Z"/>
<path transform="translate(118.980,226.000) scale(0.04468,-0.04468)" d="M95 107 322 728Q331 753 335.0 760.0Q339 767 344 767Q349 767 353.0 760.5Q357 754 366 731Q370 721 384.5 683.5Q399 646 419.5 591.5Q440 537 465.0 472.0Q490 407 514.5 343.5Q539 280 561.5 223.0Q584 166 599 128Q612 95 624.5 74.0Q637 53 647.5 41.0Q658 29 667.5 24.0Q677 19 685 17Q696 13 706.5 12.0Q717 11 725 11Q735 11 735 5Q735 0 729.0 -1.5Q723 -3 715 -3Q709 -3 693.5 -3.0Q678 -3 656.5 -3.0Q635 -3 609.5 -2.5Q584 -2 558 -1Q544 0 536.0 0.5Q528 1 528 6Q528 11 535 13Q540 15 543.0 21.5Q546 28 541 40L448 286Q445 292 439 292H224Q217 292 214 284L154 107Q140 68 140 40Q140 25 152.5 18.0Q165 11 178 11H188Q198 11 198 5Q198 -3 183 -3Q174 -3 162.0 -2.5Q150 -2 139.0 -1.5Q128 -1 118.5 -0.5Q109 0 105 0Q101 0 89.5 -0.5Q78 -1 62.0 -1.5Q46 -2 28.0 -2.5Q10 -3 -8 -3Q-27 -3 -27 5Q-27 11 -18 11Q-13 11 -4.0 11.5Q5 12 11 13Q46 18 63.5 43.5Q81 69 95 107ZM235 328H426Q432 328 430 335L335 605Q327 627 320 605L232 335Q229 328 235 328Z"/>
<path transform="translate(144.447,226.000) scale(0.04468,-0.04468)" d="M391 710V287Q391 215 391.5 158.5Q392 102 396 70Q398 48 405.0 33.0Q412 18 435 15Q446 13 459.5 12.0Q473 11 480 11Q488 11 488 5Q488 -3 472 -3Q451 -3 430.0 -2.5Q409 -2 391.5 -1.5Q374 -1 362.5 -0.5Q351 0 349 0Q347 0 335.5 -0.5Q324 -1 309.0 -1.5Q294 -2 278.0 -2.5Q262 -3 251 -3Q235 -3 235 5Q235 11 243 11Q250 11 258.0 12.0Q266 13 273 15Q288 18 293.5 33.0Q299 48 302 70Q306 102 306.5 158.5Q307 215 307 287V710L159 708Q136 708 119.5 706.0Q103 704 91.0 700.5Q79 697 71.0 691.0Q63 685 57 676Q49 663 45.5 656.5Q42 650 40 645Q36 635 30 635Q25 635 25 644Q25 648 28.0 663.5Q31 679 35.0 697.0Q39 715 42.5 730.0Q46 745 47 748Q49 753 51.5 760.0Q54 767 57 767Q62 767 71.5 762.0Q81 757 101 755Q123 753 147.0 751.5Q171 750 180 750H555Q579 750 596.5 751.5Q614 753 626 755Q637 757 644.0 758.5Q651 760 654 760Q658 760 658.5 756.5Q659 753 659 748Q659 737 658.5 720.0Q658 703 657.5 686.0Q657 669 656.5 655.5Q656 642 656 638Q656 625 649 625Q645 625 643.5 628.0Q642 631 641 642L640 653Q639 664 633.0 674.0Q627 684 613.5 691.0Q600 698 576.5 702.5Q553 707 517 708Z"/>
<path transform="translate(172.639,226.000) scale(0.04468,-0.04468)" d="M782 463V287Q782 215 782.5 158.5Q783 102 787 70Q789 48 796.0 33.0Q803 18 826 15Q837 13 850.5 12.0Q864 11 871 11Q879 11 879 5Q879 -3 863 -3Q842 -3 821.0 -2.5Q800 -2 782.5 -1.5Q765 -1 753.5 -0.5Q742 0 740 0Q738 0 726.5 -0.5Q715 -1 700.0 -1.5Q685 -2 669.0 -2.5Q653 -3 642 -3Q626 -3 626 5Q626 11 634 11Q641 11 649.0 12.0Q657 13 664 15Q679 18 684.5 33.0Q690 48 693 70Q697 102 697.5 158.5Q698 215 698 287V392Q698 398 692 398H268Q262 398 262 392V287Q262 215 262.5 158.5Q263 102 267 70Q269 48 276.0 33.0Q283 18 306 15Q317 13 330.5 12.0Q344 11 351 11Q359 11 359 5Q359 -3 343 -3Q322 -3 301.0 -2.5Q280 -2 262.5 -1.5Q245 -1 233.5 -0.5Q222 0 220 0Q218 0 206.5 -0.5Q195 -1 180.0 -1.5Q165 -2 149.0 -2.5Q133 -3 122 -3Q106 -3 106 5Q106 11 114 11Q121 11 129.0 12.0Q137 13 144 15Q159 18 164.5 33.0Q170 48 173 70Q177 102 177.5 158.5Q178 215 178 287V463Q178 521 178.0 558.0Q178 595 178.0 617.5Q178 640 177.5 653.5Q177 667 176 679Q174 705 166.0 718.0Q158 731 133 736Q127 738 116.5 738.5Q106 739 99 739Q91 739 91 745Q91 753 107 753Q124 753 143.0 752.5Q162 752 178.5 751.5Q195 751 206.5 750.5Q218 750 220 750Q222 750 233.5 750.5Q245 751 260.0 751.5Q275 752 291.0 752.5Q307 753 318 753Q334 753 334 745Q334 739 326 739Q321 739 315.5 738.5Q310 738 301 736Q281 732 273.5 718.5Q266 705 264 679Q263 667 262.5 653.5Q262 640 262.0 617.5Q262 595 262.0 558.0Q262 521 262 463V442Q262 436 268 436H692Q698 436 698 442V463Q698 521 698.0 558.0Q698 595 698.0 617.5Q698 640 697.5 653.5Q697 667 696 679Q694 705 686.0 718.0Q678 731 653 736Q647 738 636.5 738.5Q626 739 619 739Q611 739 611 745Q611 753 627 753Q644 753 663.0 752.5Q682 752 698.5 751.5Q715 751 726.5 750.5Q738 750 740 750Q742 750 753.5 750.5Q765 751 780.0 751.5Q795 752 811.0 752.5Q827 753 838 753Q854 753 854 745Q854 739 846 739Q841 739 835.5 738.5Q830 738 821 736Q801 732 793.5 718.5Q786 705 784 679Q783 667 782.5 653.5Q782 640 782.0 617.5Q782 595 782.0 558.0Q782 521 782 463Z"/>
</g>
</svg>
